<?xml version="1.0" encoding="UTF-8"?>
<svg xmlns="http://www.w3.org/2000/svg" xmlns:xlink="http://www.w3.org/1999/xlink" width="23pt" height="23pt" viewBox="0 0 23 23" version="1.1">
<g id="surface1">
<path style=" stroke:none;fill-rule:nonzero;fill:rgb(0%,0%,0%);fill-opacity:1;" d="M 20.304688 0 L 2.695312 0 C 1.207031 0 0 1.207031 0 2.695312 L 0 14.296875 C 0 15.785156 1.207031 16.992188 2.695312 16.992188 L 6.878906 16.992188 C 6.976562 16.992188 7.058594 17.074219 7.058594 17.171875 L 7.058594 21.742188 C 7.058594 22.25 7.363281 22.710938 7.835938 22.90625 C 8.304688 23.097656 8.84375 22.992188 9.207031 22.632812 L 14.789062 17.046875 C 14.824219 17.011719 14.871094 16.996094 14.917969 16.996094 L 20.308594 16.996094 C 21.796875 16.996094 23.003906 15.789062 23.003906 14.300781 L 23.003906 2.695312 C 23.003906 1.980469 22.71875 1.292969 22.210938 0.789062 C 21.707031 0.28125 21.019531 0 20.304688 0 Z M 21.921875 14.296875 C 21.921875 15.191406 21.199219 15.914062 20.304688 15.914062 L 14.914062 15.914062 C 14.582031 15.914062 14.261719 16.042969 14.023438 16.273438 L 8.445312 21.867188 C 8.394531 21.917969 8.316406 21.933594 8.25 21.90625 C 8.179688 21.878906 8.136719 21.8125 8.136719 21.742188 L 8.136719 17.171875 C 8.136719 16.476562 7.574219 15.914062 6.878906 15.914062 L 2.695312 15.914062 C 1.800781 15.914062 1.078125 15.191406 1.078125 14.296875 L 1.078125 2.695312 C 1.078125 1.800781 1.800781 1.078125 2.695312 1.078125 L 20.304688 1.078125 C 21.199219 1.078125 21.921875 1.800781 21.921875 2.695312 Z M 21.921875 14.296875 "/>
</g>
</svg>
