<svg width="19" height="14" viewBox="0 0 19 14" fill="none" xmlns="http://www.w3.org/2000/svg">
<path d="M16.1124 1.49326V0H12.3486C11.1463 0 10.0103 0.444565 9.13026 1.25488C8.25022 0.444529 7.11415 0 5.91191 0H2.68305H2.14807V1.49322H0V14H18.2605V1.49326H16.1124ZM12.3486 1.06995H15.0425V10.7921H12.3486C11.3777 10.7921 10.4499 11.0821 9.66523 11.6205V2.22568L9.75885 2.13323C10.4531 1.44757 11.3728 1.06995 12.3486 1.06995ZM5.91191 1.06995C6.88771 1.06995 7.80744 1.44757 8.5017 2.13323L8.59528 2.22564V11.6205C7.81061 11.0821 6.88282 10.7921 5.91191 10.7921H3.21802V1.06995H5.91191ZM1.06995 2.56321H2.14807V11.8621H2.68305H5.91188C6.88764 11.8621 7.80737 12.2398 8.50162 12.9254L8.5064 12.9301H1.06995V2.56321ZM17.1906 12.9301H9.75407L9.75882 12.9254C10.4531 12.2397 11.3728 11.8621 12.3486 11.8621H16.1124V2.56321H17.1906V12.9301Z" fill="#4b484e"/>
<path d="M4.81055 3.33472H7.00277V4.40467H4.81055V3.33472Z" fill="#4b484e"/>
<path d="M4.81055 5.47461H7.00277V6.54456H4.81055V5.47461Z" fill="#4b484e"/>
<path d="M4.81055 7.6145H7.00277V8.68445H4.81055V7.6145Z" fill="#4b484e"/>
<path d="M11.2577 3.33472H13.45V4.40467H11.2577V3.33472Z" fill="#4b484e"/>
<path d="M11.2577 5.47461H13.45V6.54456H11.2577V5.47461Z" fill="#4b484e"/>
<path d="M11.2577 7.6145H13.45V8.68445H11.2577V7.6145Z" fill="#4b484e"/>
</svg>
