<?xml version="1.0" encoding="UTF-8"?>
<svg xmlns="http://www.w3.org/2000/svg" xmlns:xlink="http://www.w3.org/1999/xlink" width="23pt" height="23pt" viewBox="0 0 23 23" version="1.1">
<g id="surface1">
<path style=" stroke:none;fill-rule:nonzero;fill:rgb(0%,0%,0%);fill-opacity:1;" d="M 22.101562 10.601562 L 0.898438 10.601562 C 0.402344 10.601562 0 11.003906 0 11.5 C 0 11.996094 0.402344 12.398438 0.898438 12.398438 L 22.101562 12.398438 C 22.597656 12.398438 23 11.996094 23 11.5 C 23 11.003906 22.597656 10.601562 22.101562 10.601562 Z M 22.101562 10.601562 "/>
<path style=" stroke:none;fill-rule:nonzero;fill:rgb(0%,0%,0%);fill-opacity:1;" d="M 22.101562 3.414062 L 0.898438 3.414062 C 0.402344 3.414062 0 3.816406 0 4.3125 C 0 4.808594 0.402344 5.210938 0.898438 5.210938 L 22.101562 5.210938 C 22.597656 5.210938 23 4.808594 23 4.3125 C 23 3.816406 22.597656 3.414062 22.101562 3.414062 Z M 22.101562 3.414062 "/>
<path style=" stroke:none;fill-rule:nonzero;fill:rgb(0%,0%,0%);fill-opacity:1;" d="M 22.101562 17.789062 L 0.898438 17.789062 C 0.402344 17.789062 0 18.191406 0 18.6875 C 0 19.183594 0.402344 19.585938 0.898438 19.585938 L 22.101562 19.585938 C 22.597656 19.585938 23 19.183594 23 18.6875 C 23 18.191406 22.597656 17.789062 22.101562 17.789062 Z M 22.101562 17.789062 "/>
</g>
</svg>
