<?xml version="1.0" encoding="UTF-8"?>
<svg xmlns="http://www.w3.org/2000/svg" xmlns:xlink="http://www.w3.org/1999/xlink" width="23pt" height="23pt" viewBox="0 0 23 23" version="1.1">
<g id="surface1">
<path style=" stroke:none;fill-rule:nonzero;fill:rgb(0%,0%,0%);fill-opacity:1;" d="M 20.273438 9.6875 C 20.164062 9.40625 19.941406 9.269531 19.625 9.269531 L 13.46875 9.269531 L 16.527344 0.949219 C 16.660156 0.589844 16.546875 0.316406 16.25 0.113281 C 15.984375 -0.0664062 15.601562 -0.0273438 15.386719 0.1875 L 2.878906 12.519531 C 2.660156 12.734375 2.609375 13 2.726562 13.304688 C 2.835938 13.597656 3.054688 13.738281 3.371094 13.738281 L 9.53125 13.738281 L 6.472656 22.066406 C 6.339844 22.429688 6.453125 22.695312 6.75 22.890625 C 6.945312 23.023438 7.34375 23.082031 7.640625 22.792969 L 20.121094 10.460938 C 20.339844 10.246094 20.390625 9.988281 20.273438 9.6875 Z M 8.882812 19.59375 L 11.195312 13.28125 C 11.28125 13.039062 11.257812 12.808594 11.117188 12.621094 C 10.980469 12.429688 10.789062 12.339844 10.546875 12.339844 L 5.085938 12.339844 L 14.113281 3.414062 L 11.792969 9.738281 C 11.710938 9.957031 11.746094 10.164062 11.878906 10.359375 C 12.027344 10.570312 12.210938 10.675781 12.453125 10.675781 L 17.910156 10.675781 Z M 8.882812 19.59375 "/>
</g>
</svg>
