<?xml version="1.0" encoding="UTF-8"?>
<svg xmlns="http://www.w3.org/2000/svg" xmlns:xlink="http://www.w3.org/1999/xlink" width="23pt" height="23pt" viewBox="0 0 23 23" version="1.1">
<g id="surface1">
<path style=" stroke:none;fill-rule:nonzero;fill:rgb(0%,0%,0%);fill-opacity:1;" d="M 23.042969 10.914062 L 20.929688 8.804688 L 12.507812 0.371094 C 12.011719 -0.125 11.207031 -0.125 10.710938 0.371094 L 2.277344 8.796875 L 0.160156 10.914062 C -0.0390625 11.128906 -0.0351562 11.464844 0.171875 11.671875 C 0.378906 11.878906 0.714844 11.882812 0.929688 11.683594 L 2.117188 10.492188 L 2.117188 21.933594 C 2.117188 22.632812 2.6875 23.203125 3.386719 23.203125 L 8.339844 23.203125 C 9.039062 23.203125 9.605469 22.632812 9.605469 21.933594 L 9.605469 14.683594 C 9.605469 14.582031 9.6875 14.5 9.789062 14.5 L 13.414062 14.5 C 13.515625 14.5 13.59375 14.582031 13.59375 14.683594 L 13.59375 21.933594 C 13.59375 22.632812 14.164062 23.203125 14.863281 23.203125 L 19.820312 23.203125 C 20.519531 23.203125 21.085938 22.632812 21.085938 21.933594 L 21.085938 10.5 L 22.273438 11.683594 C 22.488281 11.882812 22.820312 11.878906 23.027344 11.671875 C 23.234375 11.464844 23.242188 11.128906 23.042969 10.914062 Z M 20 21.933594 C 20 22.035156 19.917969 22.113281 19.820312 22.113281 L 14.863281 22.113281 C 14.761719 22.113281 14.683594 22.035156 14.683594 21.933594 L 14.683594 14.683594 C 14.683594 13.980469 14.113281 13.414062 13.414062 13.414062 L 9.789062 13.414062 C 9.085938 13.414062 8.519531 13.980469 8.519531 14.683594 L 8.519531 21.933594 C 8.519531 22.035156 8.4375 22.113281 8.339844 22.113281 L 3.386719 22.113281 C 3.289062 22.113281 3.207031 22.035156 3.207031 21.933594 L 3.207031 9.40625 L 11.472656 1.140625 C 11.542969 1.070312 11.65625 1.070312 11.726562 1.140625 L 20 9.410156 Z M 20 21.933594 "/>
</g>
</svg>
