<svg id="Icons" height="512" viewBox="0 0 74 74" width="512" xmlns="http://www.w3.org/2000/svg"><path d="m51.8 58.764h-29.6a1 1 0 1 1 0-2h29.6a1 1 0 0 1 0 2z"/><path d="m69 58.764h-6.8a1 1 0 0 1 0-2h6.8a1 1 0 0 0 1-1v-10.44a3.421 3.421 0 0 0 -2.188-3.177l-3.9-1.489a1 1 0 0 1 -.394-.274l-12.76-14.51a2.09 2.09 0 0 0 -1.569-.71h-44.189a1 1 0 0 0 -1 1v29.6a1 1 0 0 0 1 1h6.8a1 1 0 1 1 0 2h-6.8a3 3 0 0 1 -3-3v-29.6a3 3 0 0 1 3-3h44.19a4.1 4.1 0 0 1 3.071 1.389l12.6 14.324 3.669 1.4a5.433 5.433 0 0 1 3.47 5.047v10.44a3 3 0 0 1 -3 3z"/><path d="m57 63.963a6.2 6.2 0 1 1 6.2-6.2 6.209 6.209 0 0 1 -6.2 6.2zm0-10.4a4.2 4.2 0 1 0 4.2 4.2 4.207 4.207 0 0 0 -4.2-4.204z"/><path d="m17 63.963a6.2 6.2 0 1 1 6.2-6.2 6.209 6.209 0 0 1 -6.2 6.2zm0-10.4a4.2 4.2 0 1 0 4.2 4.2 4.207 4.207 0 0 0 -4.2-4.204z"/><path d="m58 40.724h-14.609a1 1 0 0 1 -1-1v-11.261a1 1 0 0 1 1-1h4.828a1 1 0 0 1 .755.345l9.781 11.26a1 1 0 0 1 -.755 1.656zm-13.609-2h11.416l-8.044-9.261h-3.372z"/><path d="m23.624 45h-4.788a1 1 0 0 1 -1-1v-3.373h-3.376a1 1 0 0 1 -1-1v-4.787a1 1 0 0 1 1-1h3.376v-3.377a1 1 0 0 1 1-1h4.788a1 1 0 0 1 1 1v3.377h3.376a1 1 0 0 1 1 1v4.787a1 1 0 0 1 -1 1h-3.376v3.373a1 1 0 0 1 -1 1zm-3.788-2h2.788v-3.373a1 1 0 0 1 1-1h3.376v-2.787h-3.376a1 1 0 0 1 -1-1v-3.377h-2.788v3.377a1 1 0 0 1 -1 1h-3.376v2.787h3.376a1 1 0 0 1 1 1z"/><path d="m44.75 24.963h-9.188a1 1 0 0 1 -1-1v-1.937a5.594 5.594 0 0 1 11.188 0v1.937a1 1 0 0 1 -1 1zm-8.188-2h7.188v-.937a3.594 3.594 0 0 0 -7.188 0z"/><path d="m40.156 13.543a1 1 0 0 1 -1-1v-1.506a1 1 0 1 1 2 0v1.506a1 1 0 0 1 -1 1z"/><path d="m45.68 15.593a1 1 0 0 1 -.8-1.606l.981-1.289a1 1 0 0 1 1.592 1.212l-.976 1.29a1 1 0 0 1 -.797.393z"/><path d="m34.633 15.593a1 1 0 0 1 -.8-.394l-.982-1.289a1 1 0 0 1 1.595-1.21l.982 1.289a1 1 0 0 1 -.795 1.606z"/><path d="m48.8 19.713a1 1 0 0 1 -.189-1.982l1.792-.346a1 1 0 0 1 .379 1.964l-1.792.351a.947.947 0 0 1 -.19.013z"/><path d="m31.513 19.713a.957.957 0 0 1 -.191-.018l-1.792-.346a1 1 0 0 1 .379-1.964l1.792.346a1 1 0 0 1 -.188 1.982z"/></svg>