<?xml version="1.0"?>
<svg xmlns="http://www.w3.org/2000/svg" xmlns:xlink="http://www.w3.org/1999/xlink" xmlns:svgjs="http://svgjs.com/svgjs" version="1.1" width="512" height="512" x="0" y="0" viewBox="0 0 36 36" style="enable-background:new 0 0 512 512" xml:space="preserve" class=""><g><path xmlns="http://www.w3.org/2000/svg" d="m3.442 23.883c6.061 3.333 8.497 8.761 11.417 10.367 2.921 1.606 9.978 3.299 17.366-10.137s.221-19.945-2.992-21.712c-15.042-8.27-36.525 15.58-25.791 21.482z" fill="#e5495e" data-original="#efefef" style="" class=""/><path xmlns="http://www.w3.org/2000/svg" d="m27.5 13.03c0 .26-.01.51-.03.76 0 .07 0 .14-.01.2-.02.22-.04.42-.07.63-.02.1-.03.2-.05.3-.57 3.44-2.62 6.27-4.75 8.38-2.08 2.05-4.23 3.41-5.14 3.95-.07.04-.14.07-.19.11-.17.09-.26.14-.26.14s-.09-.05-.26-.14c-.05-.04-.12-.07-.19-.11-.9-.53-3.06-1.89-5.14-3.95-2.13-2.11-4.18-4.94-4.75-8.38-.02-.1-.03-.2-.05-.3-.03-.21-.05-.41-.07-.63-.01-.07-.01-.13-.01-.2-.02-.25-.03-.5-.03-.76 0-3.05 2.48-5.53 5.53-5.53 2.18 0 4.07 1.15 4.97 3 .9-1.85 2.79-3 4.97-3 3.05 0 5.53 2.48 5.53 5.53z" fill="#f6af3d" data-original="#f3f3f1" style="" class=""/><path xmlns="http://www.w3.org/2000/svg" d="m18 26.91c-.21.14-.4.25-.55.34-.07.04-.14.07-.19.11-.17.09-.26.14-.26.14s-.09-.05-.26-.14c-.05-.04-.12-.07-.19-.11-.9-.53-3.06-1.89-5.14-3.95-2.13-2.11-4.18-4.94-4.75-8.38-.02-.1-.03-.2-.05-.3-.03-.21-.05-.41-.07-.63-.01-.07-.01-.13-.01-.2-.02-.25-.03-.5-.03-.76 0-3.05 2.48-5.53 5.53-5.53.35 0 .69.03 1.02.09-2.58.46-4.55 2.72-4.55 5.44 0 .26.01.51.03.76 0 .07 0 .13.01.2.02.22.04.42.07.63.02.1.03.2.05.3.57 3.44 2.62 6.27 4.75 8.38 1.73 1.72 3.52 2.95 4.59 3.61z" fill="#d5dbe1" data-original="#d5dbe1" style="" class=""/><path xmlns="http://www.w3.org/2000/svg" d="m18.5 22.25c-.005 0-.009 0-.014 0-.301-.006-.57-.191-.682-.472l-1.812-4.528h-3.242v-1.5h3.75c.307 0 .583.187.696.472l1.34 3.35 3.278-7.376c.115-.258.365-.43.648-.444.285-.006.549.131.689.377l3.784 6.622h3.315v1.5h-3.75c-.269 0-.518-.144-.651-.378l-3.265-5.714-3.398 7.646c-.121.271-.39.445-.686.445z" fill="#7349e5" data-original="#000000" style="" class=""/><path xmlns="http://www.w3.org/2000/svg" d="m17 28.25c-.12 0-.239-.028-.348-.085-.445-.234-10.902-5.818-10.902-15.135 0-3.463 2.817-6.28 6.28-6.28 2.005 0 3.814.874 4.97 2.344 1.156-1.47 2.965-2.344 4.97-2.344 3.463 0 6.28 2.817 6.28 6.28 0 .711-.058 1.393-.172 2.023l-1.476-.267c.1-.551.148-1.126.148-1.757 0-2.636-2.144-4.78-4.78-4.78-1.876 0-3.522.988-4.296 2.578-.251.516-1.098.516-1.349 0-.773-1.59-2.419-2.578-4.296-2.578-2.636 0-4.78 2.144-4.78 4.78 0 7.518 7.972 12.576 9.75 13.61.828-.481 2.996-1.83 5.063-3.874l1.055 1.066c-2.778 2.748-5.648 4.268-5.769 4.331-.109.059-.228.088-.348.088z" fill="#7349e5" data-original="#000000" style="" class=""/><g xmlns="http://www.w3.org/2000/svg" fill="#a4afc1"><path d="m7.783 3.305h2v1h-2z" transform="matrix(.707 -.707 .707 .707 -.118 7.325)" fill="#7349e5" data-original="#a4afc1" style="" class=""/><path d="m3.717 7.371h2v1h-2z" transform="matrix(.707 -.707 .707 .707 -4.184 5.641)" fill="#7349e5" data-original="#a4afc1" style="" class=""/><path d="m4.217 2.628h1v2h-1z" transform="matrix(.707 -.707 .707 .707 -1.184 4.398)" fill="#7349e5" data-original="#a4afc1" style="" class=""/></g></g></svg>
