<svg width="53" height="53" viewBox="0 0 53 53" fill="none" xmlns="http://www.w3.org/2000/svg">
<path d="M5.06736 35.1611C13.9905 40.068 17.5768 48.0592 21.8757 50.4236C26.1761 52.788 36.5655 55.2805 47.4423 35.4997C58.3191 15.7189 47.7677 6.13622 43.0374 3.53481C20.8923 -8.64047 -10.7355 26.472 5.06736 35.1611Z" fill="#E5495E"/>
<path d="M40.4861 19.1831C40.4861 19.5658 40.4713 19.9339 40.4419 20.3019C40.4419 20.405 40.4419 20.5081 40.4272 20.5964C40.3977 20.9203 40.3683 21.2147 40.3241 21.5239C40.2947 21.6711 40.2799 21.8183 40.2505 21.9656C39.4113 27.03 36.3933 31.1964 33.2574 34.3028C30.1952 37.3208 27.03 39.323 25.6902 40.118C25.5872 40.1769 25.4841 40.2211 25.4105 40.28C25.1602 40.4125 25.0277 40.4861 25.0277 40.4861C25.0277 40.4861 24.8952 40.4125 24.6449 40.28C24.5713 40.2211 24.4683 40.1769 24.3652 40.118C23.0402 39.3378 19.8602 37.3355 16.798 34.3028C13.6622 31.1964 10.6441 27.03 9.80495 21.9656C9.77551 21.8183 9.76079 21.6711 9.73134 21.5239C9.68717 21.2147 9.65773 20.9203 9.62829 20.5964C9.61356 20.4933 9.61356 20.405 9.61356 20.3019C9.58412 19.9339 9.5694 19.5658 9.5694 19.1831C9.5694 14.6928 13.2205 11.0417 17.7108 11.0417C20.9202 11.0417 23.7027 12.7347 25.0277 15.4583C26.3527 12.7347 29.1352 11.0417 32.3447 11.0417C36.8349 11.0417 40.4861 14.6928 40.4861 19.1831V19.1831Z" fill="#F6AF3D"/>
<path d="M26.5 39.6175C26.1908 39.8236 25.9111 39.9855 25.6902 40.118C25.5872 40.1769 25.4841 40.2211 25.4105 40.28C25.1602 40.4125 25.0277 40.4861 25.0277 40.4861C25.0277 40.4861 24.8952 40.4125 24.645 40.28C24.5713 40.2211 24.4683 40.1769 24.3652 40.118C23.0402 39.3378 19.8602 37.3355 16.798 34.3028C13.6622 31.1964 10.6441 27.03 9.80495 21.9656C9.77551 21.8183 9.76079 21.6711 9.73134 21.5239C9.68717 21.2147 9.65773 20.9203 9.62829 20.5964C9.61356 20.4933 9.61356 20.405 9.61356 20.3019C9.58412 19.9339 9.5694 19.5658 9.5694 19.1831C9.5694 14.6928 13.2205 11.0417 17.7108 11.0417C18.2261 11.0417 18.7266 11.0858 19.2125 11.1742C15.4141 11.8514 12.5138 15.1786 12.5138 19.1831C12.5138 19.5658 12.5286 19.9339 12.558 20.3019C12.558 20.405 12.558 20.4933 12.5727 20.5964C12.6022 20.9203 12.6316 21.2147 12.6758 21.5239C12.7052 21.6711 12.72 21.8183 12.7494 21.9656C13.5886 27.03 16.6066 31.1964 19.7425 34.3028C22.2894 36.835 24.9247 38.6458 26.5 39.6175V39.6175Z" fill="#D5DBE1"/>
<path d="M27.2361 32.757C27.2287 32.757 27.2228 32.757 27.2155 32.757C26.7723 32.7481 26.3763 32.4758 26.2114 32.0621L23.5438 25.3958H18.7708V23.1875H24.2916C24.7436 23.1875 25.15 23.4628 25.3163 23.8824L27.2891 28.8143L32.115 17.9552C32.2843 17.5754 32.6524 17.3222 33.069 17.3016C33.4886 17.2927 33.8773 17.4944 34.0834 17.8566L39.6543 27.6056H44.5347V29.814H39.0139C38.6178 29.814 38.2513 29.602 38.0555 29.2575L33.2486 20.8452L28.246 32.1018C28.0679 32.5008 27.6719 32.757 27.2361 32.757V32.757Z" fill="#7349E5"/>
<path d="M25.0278 41.5903C24.8511 41.5903 24.6759 41.5491 24.5154 41.4651C23.8603 41.1206 8.46527 32.8998 8.46527 19.1831C8.46527 14.0848 12.6125 9.9375 17.7108 9.9375C20.6626 9.9375 23.3259 11.2242 25.0278 13.3884C26.7297 11.2242 29.3929 9.9375 32.3447 9.9375C37.443 9.9375 41.5903 14.0848 41.5903 19.1831C41.5903 20.2298 41.5049 21.2339 41.337 22.1614L39.164 21.7683C39.3113 20.9571 39.3819 20.1106 39.3819 19.1816C39.3819 15.3008 36.2255 12.1444 32.3447 12.1444C29.5828 12.1444 27.1595 13.5989 26.02 15.9398C25.6505 16.6994 24.4035 16.6994 24.034 15.9398C22.896 13.5989 20.4727 12.1444 17.7094 12.1444C13.8286 12.1444 10.6721 15.3008 10.6721 19.1816C10.6721 30.2498 22.4087 37.6963 25.0263 39.2185C26.2453 38.5104 29.4371 36.5244 32.4802 33.5151L34.0334 35.0845C29.9435 39.1302 25.7182 41.368 25.5401 41.4607C25.3796 41.5476 25.2044 41.5903 25.0278 41.5903V41.5903Z" fill="#7349E5"/>
<path d="M11.3674 6.12305L13.4494 4.04102L14.4904 5.08203L12.4084 7.16407L11.3674 6.12305Z" fill="#7349E5"/>
<path d="M5.38129 12.1081L7.46332 10.0261L8.50434 11.0671L6.42231 13.1491L5.38129 12.1081Z" fill="#7349E5"/>
<path d="M5.38159 4.82091L6.42261 3.77989L8.50464 5.86192L7.46363 6.90294L5.38159 4.82091Z" fill="#7349E5"/>
</svg>
